<svg width="19" height="19" viewBox="0 0 19 19" fill="none" xmlns="http://www.w3.org/2000/svg">
<path d="M17.5888 1H1.6912C1.30888 1 1 1.29994 1 1.6712V17.1088C1 17.4801 1.30888 17.78 1.6912 17.78H17.5888C17.9711 17.78 18.28 17.4801 18.28 17.1088V1.6712C18.28 1.29994 17.9711 1 17.5888 1ZM6.12568 15.2987H3.56176V7.2904H6.12568V15.2987ZM4.8448 6.19551C4.55088 6.19551 4.26356 6.11087 4.01918 5.9523C3.77479 5.79374 3.58432 5.56836 3.47184 5.30467C3.35936 5.04098 3.32993 4.75083 3.38727 4.4709C3.44462 4.19097 3.58615 3.93383 3.79398 3.73202C4.00182 3.5302 4.26661 3.39276 4.55488 3.33708C4.84315 3.28139 5.14195 3.30997 5.4135 3.4192C5.68504 3.52842 5.91714 3.71338 6.08043 3.9507C6.24372 4.18801 6.33088 4.46701 6.33088 4.75243C6.32872 5.54948 5.66344 6.19551 4.8448 6.19551ZM15.7247 15.2987H13.163V11.4036C13.163 10.4744 13.1457 9.28093 11.8302 9.28093C10.4975 9.28093 10.2923 10.2919 10.2923 11.3365V15.2987H7.73272V7.2904H10.1908V8.3853H10.2254C10.5666 7.75605 11.4026 7.09114 12.651 7.09114C15.2474 7.09114 15.7247 8.75026 15.7247 10.9065V15.2987Z" stroke="white"/>
</svg>
