<svg width="18" height="17" viewBox="0 0 18 17" fill="none" xmlns="http://www.w3.org/2000/svg">
<path d="M16.7882 1.44599L16.7881 1.44654L14.181 15.6833C14.0894 16.149 13.9495 16.2846 13.893 16.3145C13.8657 16.3289 13.7485 16.3723 13.4528 16.1863L9.50313 12.8163L9.16937 12.5315L8.87623 12.8579L6.99441 14.9536L7.21998 11.2511L14.468 3.66753C14.4684 3.66714 14.4687 3.66675 14.4691 3.66636C14.5218 3.61192 14.5719 3.5527 14.6126 3.48934C14.6495 3.43194 14.7012 3.33708 14.7141 3.21669C14.7296 3.07305 14.6858 2.89297 14.5288 2.76896C14.4013 2.66817 14.2617 2.65654 14.1907 2.65654C14.042 2.65654 13.8962 2.70872 13.785 2.76027C13.6644 2.81623 13.5358 2.89449 13.4083 2.99215L4.47577 9.30547L0.77761 7.96521L0.777275 7.96509C0.608628 7.90412 0.518187 7.83734 0.476867 7.79233C0.457488 7.77122 0.451728 7.7581 0.45046 7.75479C0.450269 7.75429 0.450135 7.7539 0.450044 7.75361C0.450247 7.7517 0.451712 7.74164 0.461537 7.72254C0.472745 7.70076 0.494453 7.66818 0.534619 7.62716C0.616488 7.54356 0.759335 7.44103 0.986269 7.33813C0.98664 7.33796 0.98701 7.33779 0.987381 7.33762L16.3106 0.502126C16.3112 0.501864 16.3118 0.501603 16.3124 0.501343C16.5398 0.403157 16.6466 0.463851 16.6982 0.521715C16.7789 0.612276 16.8929 0.878374 16.7882 1.44599Z" stroke="white" stroke-width="0.9"/>
</svg>
