<svg width="18" height="17" viewBox="0 0 18 17" fill="none" xmlns="http://www.w3.org/2000/svg">
<path d="M14.2591 12.4718V12.472L14.2726 12.4716L14.6802 12.4606C14.7386 12.4604 14.8058 12.4568 14.8736 12.4438C14.9393 12.4312 15.0493 12.4018 15.1525 12.3187C15.2749 12.2203 15.3437 12.0821 15.3579 11.939C15.3697 11.8196 15.3412 11.722 15.3244 11.6728C15.2979 11.595 15.2511 11.5073 15.2266 11.4613C15.223 11.4544 15.2198 11.4485 15.2173 11.4437C15.1878 11.3871 15.1642 11.3387 15.1458 11.2887C15.0618 11.0333 14.8875 10.7695 14.7 10.524C14.5029 10.2658 14.2545 9.98145 13.9855 9.68428C13.8236 9.5014 13.6268 9.31381 13.4683 9.16277L13.4653 9.15997C13.313 9.01484 13.2164 8.92116 13.1684 8.86708L13.1697 8.86539L13.2199 8.79561C13.263 8.73543 13.3246 8.64897 13.3989 8.54309C13.5473 8.33162 13.7473 8.04144 13.9529 7.72788C14.1578 7.41538 14.3718 7.07428 14.5462 6.7621C14.7061 6.47585 14.862 6.16371 14.9236 5.91042C14.9814 5.7214 15.0214 5.42443 14.8306 5.1616C14.6314 4.88721 14.31 4.82835 14.0633 4.82835H12.8084C12.5566 4.82835 12.3342 4.89626 12.1516 5.02999C11.9756 5.15886 11.8725 5.32261 11.809 5.45448L11.8039 5.465L11.7994 5.47554L11.7994 5.47557L11.7993 5.47564L11.7993 5.47575L11.7992 5.47587L11.7983 5.47815L11.7936 5.48898L11.7735 5.53442C11.7554 5.57479 11.7282 5.63455 11.6925 5.70975C11.6212 5.86034 11.5166 6.07177 11.385 6.31269C11.1378 6.76516 10.8064 7.30058 10.4315 7.73327V5.76603C10.4315 5.58204 10.4072 5.32748 10.2432 5.11782C10.0553 4.87767 9.78584 4.81646 9.56593 4.81646H7.59139C7.13463 4.81646 6.77478 5.16878 6.77478 5.60102C6.77478 5.81899 6.86384 5.97963 6.9372 6.08383C6.97077 6.13152 7.00733 6.17592 7.03301 6.20711L7.03411 6.20844L7.03709 6.21206C7.06464 6.24552 7.08571 6.27112 7.10673 6.2991C7.17229 6.38635 7.25514 6.51608 7.27489 6.81223V7.56101C7.2493 7.53708 7.22342 7.5125 7.19732 7.48729C6.72573 7.03179 6.20503 6.39295 5.9302 5.62251L5.93023 5.6225L5.92833 5.61736C5.86256 5.43916 5.76741 5.2212 5.58598 5.05791C5.38053 4.87301 5.13578 4.81716 4.89799 4.81716H3.64304C3.39903 4.81716 3.13534 4.87353 2.94054 5.07178C2.7453 5.27049 2.71633 5.5135 2.71633 5.66045C2.71633 5.81486 2.75912 6.0315 2.82606 6.2702C2.89702 6.52321 3.00675 6.84122 3.16516 7.21252C3.48195 7.95508 3.99728 8.91978 4.79833 10.0145C5.9093 11.576 7.5244 12.4606 9.04279 12.4606C9.4452 12.4606 9.80791 12.4236 10.0685 12.2536C10.2213 12.1538 10.3267 12.0178 10.3854 11.8599C10.4381 11.7179 10.4444 11.5805 10.4444 11.4866V10.5402C10.4452 10.5407 10.446 10.5411 10.4468 10.5415C10.5947 10.6245 10.8281 10.792 11.1822 11.1247C11.3856 11.3251 11.5475 11.4978 11.6857 11.6472C11.7059 11.669 11.7259 11.6907 11.7457 11.7121C11.8578 11.8336 11.9635 11.9481 12.0602 12.042C12.1759 12.1543 12.3077 12.2666 12.4674 12.3474C12.6372 12.4334 12.8138 12.4718 13.0041 12.4718H14.2591ZM6.30046 0.5H11.6024C14.0257 0.5 15.3235 0.79254 16.0561 1.50309C16.7832 2.20839 17.0864 3.45731 17.0864 5.81427V10.9657C17.0864 13.3236 16.786 14.5721 16.0604 15.2772C15.3295 15.9873 14.0323 16.28 11.6024 16.28H6.30046C3.87056 16.28 2.57327 15.9873 1.84243 15.2772C1.11678 14.5721 0.816406 13.3236 0.816406 10.9657V5.81427C0.816406 3.45641 1.11678 2.20786 1.84243 1.50279C2.57327 0.792685 3.87056 0.5 6.30046 0.5Z" stroke="#FFF8F8"/>
</svg>
