<svg width="66" height="82" viewBox="0 0 66 82" fill="none" xmlns="http://www.w3.org/2000/svg">
<path d="M40.9752 0H8.19505C6.02159 0 3.93714 0.863926 2.40027 2.40172C0.863404 3.93952 0 6.02522 0 8.2V73.8C0 75.9748 0.863404 78.0605 2.40027 79.5983C3.93714 81.1361 6.02159 82 8.19505 82H57.3653C59.5388 82 61.6232 81.1361 63.1601 79.5983C64.697 78.0605 65.5604 75.9748 65.5604 73.8V24.6L40.9752 0ZM22.3151 63.1892C23.4419 63.1892 24.6958 62.9391 25.4374 62.648L26.0029 65.5713C25.3145 65.9157 23.7656 66.2847 21.7538 66.2847C16.0295 66.2847 13.0793 62.7218 13.0793 57.9986C13.0752 52.3488 17.1072 49.2 22.1184 49.2C24.0607 49.2 25.5317 49.5936 26.1955 49.938L25.4333 52.9146C24.4354 52.5036 23.3656 52.2959 22.2864 52.3037C19.3116 52.3037 17.0006 54.0995 17.0006 57.7854C17.0047 61.0982 18.9756 63.1892 22.3151 63.1892V63.1892ZM32.5221 66.2847C30.6331 66.2847 28.7646 65.7968 27.8304 65.2802L28.5925 62.1806C29.6005 62.6972 31.1494 63.2138 32.7474 63.2138C34.4684 63.2138 35.378 62.5004 35.378 61.418C35.378 60.3848 34.5913 59.7944 32.5999 59.081C29.8464 58.1216 28.0557 56.6005 28.0557 54.1897C28.0557 51.3648 30.4118 49.2 34.3209 49.2C36.1852 49.2 37.562 49.5936 38.5454 50.0323L37.7095 53.0581C36.6292 52.5344 35.4434 52.2651 34.243 52.2709C32.6204 52.2709 31.8378 53.013 31.8378 53.8699C31.8378 54.9277 32.772 55.3951 34.9068 56.2069C37.8324 57.2893 39.2092 58.8145 39.2092 61.1474C39.2051 63.9272 37.0662 66.2847 32.5221 66.2847V66.2847ZM45.798 66.2847C43.9091 66.2847 42.0406 65.7968 41.1064 65.2802L41.8685 62.1806C42.8765 62.6972 44.4254 63.2138 46.0234 63.2138C47.7444 63.2138 48.654 62.5004 48.654 61.418C48.654 60.3848 47.8673 59.7944 45.8759 59.081C43.1223 58.1216 41.3317 56.6005 41.3317 54.1897C41.3317 51.3648 43.6878 49.2 47.5968 49.2C49.4612 49.2 50.838 49.5936 51.8214 50.0323L50.9855 53.0581C49.9052 52.5344 48.7194 52.2651 47.519 52.2709C45.8964 52.2709 45.1137 53.013 45.1137 53.8699C45.1137 54.9277 46.048 55.3951 48.1828 56.2069C51.1084 57.2893 52.4852 58.8145 52.4852 61.1474C52.4852 63.9272 50.3422 66.2847 45.798 66.2847V66.2847ZM40.9752 28.7H36.8777V8.2L57.3653 28.7H40.9752Z" fill="#FFBB01"/>
</svg>
