<svg width="100" height="85" viewBox="0 0 100 85" fill="none" xmlns="http://www.w3.org/2000/svg">
<path d="M99.9688 5.20574C99.9688 3.83368 99.4237 2.51782 98.4535 1.54763C97.4833 0.577439 96.1675 0.0323911 94.7954 0.0323911C94.5317 0.0323911 94.2783 0.0717239 94.0238 0.109899V0H5.17335V0.0323911C3.80129 0.0323911 2.48543 0.577439 1.51524 1.54763C0.545048 2.51782 0 3.83368 0 5.20574V79.8214H0.0578418C0.349363 82.4023 2.51379 84.4163 5.17219 84.4163V84.4487H94.0226V84.3388C94.276 84.377 94.5293 84.4163 94.7943 84.4163C97.4538 84.4163 99.6182 82.4034 99.9098 79.8214H100V5.20574H99.9688ZM88.4826 72.9301H75.9182C75.876 72.7523 75.8114 72.5805 75.7262 72.4188L75.747 72.4072L49.465 26.8859L49.4546 26.8917C49.1647 26.2896 48.7109 25.7813 48.1454 25.4253C47.5798 25.0693 46.9254 24.8799 46.2571 24.8788C45.5704 24.8797 44.8986 25.079 44.3225 25.4527C43.7464 25.8265 43.2905 26.3587 43.0098 26.9854L25.5197 57.2782L21.2371 49.8618L21.2313 49.8652C21.0786 49.5477 20.8395 49.2796 20.5414 49.0917C20.2432 48.9039 19.8982 48.8039 19.5458 48.8033C18.7835 48.8033 18.1299 49.2602 17.8349 49.9115L11.5186 60.8516V11.551H88.4826V72.9301Z" fill="#FFBB01"/>
<path d="M70.9648 40.7018C77.4177 40.7018 82.6488 35.4707 82.6488 29.0178C82.6488 22.5649 77.4177 17.3338 70.9648 17.3338C64.5119 17.3338 59.2808 22.5649 59.2808 29.0178C59.2808 35.4707 64.5119 40.7018 70.9648 40.7018Z" fill="#FFBB01"/>
</svg>
