<svg width="99" height="82" viewBox="0 0 99 82" fill="none" xmlns="http://www.w3.org/2000/svg">
<path d="M94.3 36.941L73.8 36.9C71.545 36.9 69.7 38.745 69.7 41V77.9C69.7 80.155 71.545 82 73.8 82H94.3C96.555 82 98.4 80.155 98.4 77.9V41C98.4 38.745 96.555 36.941 94.3 36.941ZM94.3 73.8H73.8V45.1H94.3V73.8ZM82 0H8.2C3.69 0 0 3.69 0 8.2V57.4C0 61.91 3.69 65.6 8.2 65.6H36.9V73.8H32.8C30.545 73.8 28.7 75.645 28.7 77.9C28.7 80.155 30.545 82 32.8 82H57.4C59.655 82 61.5 80.155 61.5 77.9C61.5 75.645 59.655 73.8 57.4 73.8H53.3V65.6H57.4C59.655 65.6 61.5 63.755 61.5 61.5C61.5 59.245 59.655 57.4 57.4 57.4H12.3C10.045 57.4 8.2 55.555 8.2 53.3V12.3C8.2 10.045 10.045 8.2 12.3 8.2H77.9C80.155 8.2 82 10.045 82 12.3V24.6C82 26.855 83.845 28.7 86.1 28.7C88.355 28.7 90.2 26.855 90.2 24.6V8.2C90.2 3.69 86.51 0 82 0ZM49.077 28.7L45.1 16.4L41.123 28.7H28.7L38.827 35.916L34.973 47.847L45.1 40.467L55.227 47.847L51.373 35.916L61.5 28.7H49.077Z" fill="#FFBB01"/>
</svg>
