<svg width="100" height="83" viewBox="0 0 100 83" fill="none" xmlns="http://www.w3.org/2000/svg">
<path d="M36.513 54.7695C24.3268 54.7695 0 60.8854 0 73.026V77.5901C0 80.1004 2.05386 82.1543 4.56413 82.1543H68.4619C70.9722 82.1543 73.026 80.1004 73.026 77.5901V73.026C73.026 60.8854 48.6992 54.7695 36.513 54.7695ZM17.0698 27.3848H56.0018C57.2341 27.3848 58.2382 26.3806 58.2382 25.1483V25.0571C58.2382 24.4639 58.0026 23.8951 57.5832 23.4757C57.1638 23.0563 56.595 22.8206 56.0018 22.8206H54.7695C54.7695 16.0657 51.0726 10.2693 45.6413 7.0744V11.4103C45.6413 12.6883 44.6372 13.6924 43.3592 13.6924C42.0812 13.6924 41.0771 12.6883 41.0771 11.4103V5.2031C39.6166 4.83797 38.1105 4.56413 36.513 4.56413C34.9156 4.56413 33.4094 4.83797 31.9489 5.2031V11.4103C31.9489 12.6883 30.9448 13.6924 29.6668 13.6924C28.3889 13.6924 27.3848 12.6883 27.3848 11.4103V7.0744C21.9534 10.2693 18.2565 16.0657 18.2565 22.8206H17.0698C16.7761 22.8206 16.4853 22.8785 16.214 22.9909C15.9427 23.1033 15.6961 23.268 15.4884 23.4757C15.2808 23.6833 15.116 23.9299 15.0036 24.2012C14.8913 24.4725 14.8334 24.7634 14.8334 25.0571V25.194C14.8334 26.3807 15.8375 27.3848 17.0698 27.3848ZM36.513 45.6413C45.0023 45.6413 52.0767 39.7992 54.1305 31.9489H18.8955C20.9493 39.7992 28.0237 45.6413 36.513 45.6413ZM95.7554 14.7421L100 10.9539L96.5769 5.02054L91.1456 6.80055C90.5066 6.29849 89.7764 5.88772 89.0005 5.56823L87.8594 0H81.0132L79.8722 5.56823C79.0963 5.88772 78.366 6.29849 77.6814 6.80055L72.2958 5.02054L68.8727 10.9539L73.1173 14.7421C73.026 15.518 73.026 16.3396 73.1173 17.1155L68.8727 20.995L72.2958 26.9283L77.7727 25.194C78.366 25.6504 79.0507 26.0155 79.7353 26.335L81.0132 31.9489H87.8594L89.0917 26.3806C89.822 26.0612 90.461 25.696 91.1 25.2396L96.5313 26.974L99.9544 21.0406L95.7097 17.1611C95.8466 16.2939 95.801 15.518 95.7554 14.7421V14.7421ZM84.4363 21.6796C82.9232 21.6796 81.4721 21.0785 80.4022 20.0086C79.3322 18.9387 78.7312 17.4875 78.7312 15.9744C78.7312 14.4613 79.3322 13.0102 80.4022 11.9403C81.4721 10.8704 82.9232 10.2693 84.4363 10.2693C85.9494 10.2693 87.4006 10.8704 88.4705 11.9403C89.5404 13.0102 90.1415 14.4613 90.1415 15.9744C90.1415 17.4875 89.5404 18.9387 88.4705 20.0086C87.4006 21.0785 85.9494 21.6796 84.4363 21.6796ZM83.9799 35.5545L80.1004 36.8325C79.644 36.4674 79.1419 36.1935 78.5942 35.9653L77.7727 31.9489H72.8891L72.0676 35.9197C71.5199 36.1479 70.9722 36.4674 70.5158 36.7869L66.6819 35.5089L64.2173 39.7535L67.2296 42.4464C67.1839 43.0397 67.1839 43.5874 67.2296 44.1351L64.2173 46.9192L66.6819 51.1639L70.607 49.9315C71.0634 50.251 71.5199 50.5249 72.0219 50.7531L72.8434 54.7695H77.7271L78.5942 50.7987C79.0963 50.5705 79.5984 50.2967 80.0548 49.9772L83.9343 51.2095L86.3989 46.9649L83.3866 44.1807C83.4322 43.5874 83.4322 43.0397 83.3866 42.492L86.3989 39.7992L83.9799 35.5545ZM75.3081 47.4213C73.0717 47.4213 71.246 45.5956 71.246 43.3592C71.246 41.1228 73.0717 39.2971 75.3081 39.2971C77.5445 39.2971 79.3701 41.1228 79.3701 43.3592C79.3701 45.5956 77.5445 47.4213 75.3081 47.4213Z" fill="#FFBB01"/>
</svg>
