<svg width="77" height="82" viewBox="0 0 77 82" fill="none" xmlns="http://www.w3.org/2000/svg">
<path d="M31.7516 72.6843C31.7512 72.1384 31.6309 71.5992 31.3991 71.1049C31.1674 70.6106 30.8298 70.1733 30.4103 69.8238C29.9909 69.4744 29.4997 69.2214 28.9717 69.0827C28.4437 68.9441 27.8916 68.9231 27.3546 69.0214C22.4732 69.9157 16.3137 70.0499 14.6778 65.4516C13.2498 61.8894 10.8845 58.7799 7.83267 56.4527C7.6142 56.3336 7.40605 56.1965 7.21038 56.0428C6.94314 55.339 6.469 54.7327 5.8504 54.3037C5.2318 53.8746 4.49776 53.643 3.74495 53.6394H3.72632C2.74127 53.6394 1.7963 54.0294 1.09802 54.7242C0.399741 55.419 0.00497997 56.362 5.47351e-05 57.347C-0.0148503 60.3839 3.01833 62.3328 4.25173 62.9886C5.70491 64.4487 6.87262 66.1674 7.6948 68.0563C9.05489 71.8683 12.9973 77.6552 24.3363 76.9099L24.3475 77.2751L24.3624 78.2737C24.3624 79.262 24.755 80.2098 25.4538 80.9086C26.1526 81.6074 27.1004 82 28.0887 82C29.0769 82 30.0247 81.6074 30.7235 80.9086C31.4223 80.2098 31.8149 79.262 31.8149 78.2737L31.7963 77.0888C31.7777 76.3808 31.7516 75.3598 31.7516 72.6843V72.6843ZM71.4997 16.3208C71.6189 15.855 71.7344 15.3371 71.835 14.7558C72.4379 10.6033 71.9128 6.36501 70.3147 2.48518C70.1133 1.97972 69.8038 1.52439 69.408 1.15106C69.0121 0.777739 68.5395 0.495447 68.0231 0.323948C66.6965 -0.123204 61.8002 -1.00633 52.4324 4.98178C44.6465 3.14967 36.5416 3.14967 28.7557 4.98178C19.4251 -0.920625 14.5549 -0.115752 13.2395 0.305317C12.71 0.469635 12.2241 0.750359 11.8172 1.12691C11.4104 1.50346 11.0929 1.96628 10.8882 2.48146C9.25593 6.43608 8.73538 10.7616 9.3828 14.9905C9.47595 15.4638 9.57284 15.9072 9.67717 16.3096C6.58886 20.4221 4.94376 25.4386 4.99698 30.5812C4.98768 31.7273 5.04117 32.873 5.15721 34.0131C6.40178 51.1651 17.5806 56.3111 25.3685 58.0811C25.1994 58.571 25.0527 59.0684 24.9288 59.5716C24.6921 60.5312 24.8463 61.5455 25.3575 62.3914C25.8687 63.2374 26.6949 63.8456 27.6545 64.0822C28.6142 64.3189 29.6285 64.1647 30.4744 63.6535C31.3203 63.1424 31.9285 62.3161 32.1652 61.3565C32.4024 60.1147 33.0104 58.974 33.9091 58.0848C34.4512 57.6089 34.8436 56.9858 35.0384 56.2912C35.2333 55.5966 35.2224 54.8603 35.007 54.1718C34.7915 53.4833 34.3809 52.8722 33.8248 52.4125C33.2688 51.9529 32.5913 51.6645 31.8745 51.5825C19.004 50.1106 13.4146 44.8677 12.5725 33.3275C12.4803 32.4138 12.4392 31.4958 12.4495 30.5775C12.3903 26.9129 13.6017 23.3409 15.8777 20.4681C16.1054 20.1693 16.3479 19.882 16.6043 19.6074C17.0609 19.0967 17.3678 18.47 17.4914 17.7961C17.615 17.1223 17.5504 16.4275 17.3048 15.788C17.0539 15.1163 16.8607 14.4244 16.7273 13.7199C16.4238 11.7131 16.5239 9.66588 17.0216 7.69823C20.2603 8.61332 23.3084 10.1026 26.0206 12.0952C26.4688 12.3937 26.9759 12.5924 27.5075 12.6779C28.0392 12.7634 28.583 12.7337 29.1022 12.5908C36.6336 10.5468 44.5738 10.5481 52.1045 12.5945C52.6265 12.7374 53.1733 12.7654 53.7073 12.6767C54.2412 12.5879 54.7495 12.3844 55.1973 12.0803C57.8978 10.0801 60.934 8.57844 64.1627 7.64606C64.6568 9.56562 64.7669 11.5639 64.4868 13.5261C64.3517 14.2989 64.1408 15.0565 63.8571 15.788C63.6115 16.4275 63.5469 17.1223 63.6705 17.7961C63.7941 18.47 64.1011 19.0967 64.5576 19.6074C64.8483 19.9316 65.1352 20.2781 65.3923 20.606C67.6518 23.4304 68.8421 26.9616 68.7534 30.5775C68.7596 31.5445 68.7124 32.5111 68.6118 33.4728C67.792 44.8603 62.184 50.1069 49.2539 51.5825C48.5363 51.6639 47.8578 51.9521 47.301 52.4119C46.7442 52.8718 46.3331 53.4836 46.1175 54.1728C45.902 54.8621 45.8914 55.5991 46.087 56.2943C46.2826 56.9895 46.676 57.6128 47.2193 58.0885C48.1454 59.0014 48.7541 60.1874 48.9558 61.472C49.2087 62.4702 49.3253 63.498 49.3023 64.5275V73.2209C49.265 75.6355 49.265 77.4428 49.265 78.2737C49.265 79.262 49.6576 80.2098 50.3564 80.9086C51.0552 81.6074 52.003 82 52.9913 82C53.9796 82 54.9274 81.6074 55.6262 80.9086C56.325 80.2098 56.7176 79.262 56.7176 78.2737C56.7176 77.4651 56.7176 75.6952 56.7548 73.2805V64.5238C56.7844 62.8768 56.5901 61.2334 56.1773 59.6387C56.0595 59.115 55.9152 58.5976 55.745 58.0885C61.4134 57.1463 66.5635 54.2234 70.2789 49.84C73.9943 45.4566 76.0338 39.8971 76.0345 34.151C76.1574 32.9639 76.2147 31.7709 76.206 30.5775C76.2884 25.4308 74.63 20.407 71.4997 16.3208V16.3208Z" fill="#FFBB01"/>
</svg>
