<svg width="66" height="82" viewBox="0 0 66 82" fill="none" xmlns="http://www.w3.org/2000/svg">
<path d="M41.1265 0H8.22531C6.04382 0 3.95168 0.863926 2.40914 2.40172C0.866592 3.93952 0 6.02522 0 8.2V73.8C0 75.9748 0.866592 78.0605 2.40914 79.5983C3.95168 81.1361 6.04382 82 8.22531 82H57.5772C59.7586 82 61.8508 81.1361 63.3933 79.5983C64.9359 78.0605 65.8025 75.9748 65.8025 73.8V24.6L41.1265 0ZM37.0139 8.2L57.5772 28.7H37.0139V8.2ZM18.6344 65.6H15.5088V59.8149H10.3433V65.6H7.18892V51.7707H10.3433V57.0843H15.5129V51.7707H18.6385V65.6H18.6344ZM30.9724 54.3988H27.1846V65.6H24.0344V54.3988H20.3124V51.7707H30.9724V54.3988V54.3988ZM44.4907 65.6L44.2851 60.3069C44.2151 58.6464 44.1617 56.6333 44.1617 54.6202H44.0959C43.6682 56.3873 43.0883 58.3553 42.5536 59.9789L40.8674 65.3745H38.4122L36.9357 60.0158C36.436 58.2368 36.0161 56.4365 35.6773 54.6202H35.632C35.5457 56.4898 35.4922 58.6218 35.3894 60.3438L35.1426 65.6H32.2432L33.1315 51.7707H37.3059L38.6672 56.3873C39.0949 57.9904 39.5308 59.7124 39.8352 61.3319H39.9051C40.2958 59.7288 40.7646 57.9043 41.2211 56.3668L42.6976 51.7707H46.7938L47.5546 65.6H44.4907V65.6ZM58.6136 65.6H49.9441V51.7707H53.0985V62.9719H58.6177V65.6H58.6136Z" fill="#FFBB01"/>
</svg>
