<svg width="65" height="82" viewBox="0 0 65 82" fill="none" xmlns="http://www.w3.org/2000/svg">
<path d="M40.625 0H8.125C5.97012 0 3.90349 0.863926 2.37976 2.40172C0.856024 3.93952 0 6.02522 0 8.2V73.8C0 75.9748 0.856024 78.0605 2.37976 79.5983C3.90349 81.1361 5.97012 82 8.125 82H56.875C59.0299 82 61.0965 81.1361 62.6202 79.5983C64.144 78.0605 65 75.9748 65 73.8V24.6L40.625 0ZM29.4734 58.1626C29.4734 63.6771 26.8572 65.6 22.6444 65.6C21.6491 65.6 20.3409 65.4278 19.4878 65.1408L19.9713 61.6107C20.5684 61.8116 21.3362 61.9551 22.1894 61.9551C24.0094 61.9551 25.1509 61.1228 25.1509 58.1093V45.9323H29.4734V58.1626V58.1626ZM37.7731 65.5713C35.5834 65.5713 33.4222 64.9932 32.3416 64.3946L33.2231 60.7743C34.3891 61.377 36.1847 61.9797 38.0331 61.9797C40.0278 61.9797 41.0759 61.1474 41.0759 59.8846C41.0759 58.6751 40.1659 57.9863 37.8625 57.154C34.6775 56.0388 32.6016 54.2553 32.6016 51.4386C32.6016 48.134 35.3316 45.6084 39.8572 45.6084C42.0225 45.6084 43.615 46.0676 44.7525 46.5842L43.7856 50.1143C43.0178 49.7412 41.6528 49.1959 39.7759 49.1959C37.8991 49.1959 36.985 50.0569 36.985 51.0614C36.985 52.2955 38.0697 52.8449 40.5397 53.7879C43.9278 55.0548 45.5203 56.8301 45.5203 59.5607C45.5122 62.812 43.0422 65.5713 37.7731 65.5713V65.5713ZM40.625 28.7H36.5625V8.2L56.875 28.7H40.625Z" fill="#FFBB01"/>
</svg>
