<svg width="82" height="82" viewBox="0 0 82 82" fill="none" xmlns="http://www.w3.org/2000/svg">
<path d="M71.75 82H10.25C7.42057 82 5.00488 80.999 3.00293 78.9971C1.00098 76.9951 0 74.5794 0 71.75V20.5C0 17.6706 1.00098 15.2549 3.00293 13.2529C5.00488 11.251 7.42057 10.25 10.25 10.25H15.375V5.125C15.375 3.68359 15.8688 2.46908 16.8564 1.48145C17.8441 0.493815 19.0586 0 20.5 0C21.9414 0 23.1559 0.493815 24.1436 1.48145C25.1312 2.46908 25.625 3.68359 25.625 5.125V10.25H35.875V5.125C35.875 3.68359 36.3822 2.46908 37.3965 1.48145C38.4108 0.493815 39.6253 0 41.04 0C42.4548 0 43.6559 0.493815 44.6436 1.48145C45.6312 2.46908 46.125 3.68359 46.125 5.125V10.25H56.375V5.125C56.375 3.68359 56.8822 2.46908 57.8965 1.48145C58.9108 0.493815 60.1253 0 61.54 0C62.9548 0 64.1559 0.493815 65.1436 1.48145C66.1312 2.46908 66.625 3.68359 66.625 5.125V10.25H71.75C74.5794 10.25 76.9951 11.251 78.9971 13.2529C80.999 15.2549 82 17.6706 82 20.5V71.75C82 74.5794 80.999 76.9951 78.9971 78.9971C76.9951 80.999 74.5794 82 71.75 82ZM71.75 20.5H66.625C66.625 21.888 66.1312 23.0892 65.1436 24.1035C64.1559 25.1178 62.9548 25.625 61.54 25.625C60.1253 25.625 58.9108 25.1178 57.8965 24.1035C56.8822 23.0892 56.375 21.888 56.375 20.5H46.125C46.125 21.888 45.6312 23.0892 44.6436 24.1035C43.6559 25.1178 42.4548 25.625 41.04 25.625C39.6253 25.625 38.4108 25.1178 37.3965 24.1035C36.3822 23.0892 35.875 21.888 35.875 20.5H25.625C25.625 21.888 25.1312 23.0892 24.1436 24.1035C23.1559 25.1178 21.9548 25.625 20.54 25.625C19.1253 25.625 17.9108 25.1178 16.8965 24.1035C15.8822 23.0892 15.375 21.888 15.375 20.5H10.25V71.75H71.75V20.5ZM28.9883 42.3613L35.875 49.248L52.9316 32.1113C53.946 31.1504 55.1338 30.6699 56.4951 30.6699C57.8564 30.6699 59.0309 31.1504 60.0186 32.1113C61.0062 33.0723 61.5 34.2467 61.5 35.6348C61.5 37.0228 61.0195 38.1973 60.0586 39.1582L40.1992 58.9375C39.8789 59.5247 39.6654 59.8717 39.5586 59.9785C38.5443 60.9928 37.3164 61.4733 35.875 61.4199C34.3802 61.4733 33.1257 60.9928 32.1113 59.9785C32.0046 59.8717 31.791 59.5247 31.4707 58.9375L21.8613 49.4082C20.9004 48.4473 20.4199 47.2728 20.4199 45.8848C20.4199 44.4967 20.9137 43.3223 21.9014 42.3613C22.889 41.4004 24.0635 40.9199 25.4248 40.9199C26.7861 40.9199 27.974 41.4004 28.9883 42.3613Z" fill="#FFBB01"/>
</svg>
