<svg width="100" height="84" viewBox="0 0 100 84" fill="none" xmlns="http://www.w3.org/2000/svg">
<path d="M95.8333 37.6949L75 37.6531C72.7083 37.6531 70.8333 39.5357 70.8333 41.8367V79.4898C70.8333 81.7908 72.7083 83.6735 75 83.6735H95.8333C98.125 83.6735 100 81.7908 100 79.4898V41.8367C100 39.5357 98.125 37.6949 95.8333 37.6949ZM95.8333 75.3061H75V46.0204H95.8333V75.3061ZM83.3333 0H8.33333C3.70833 0 0 3.72347 0 8.36735V58.5714C0 60.7906 0.877974 62.9189 2.44078 64.488C4.00358 66.0572 6.1232 66.9388 8.33333 66.9388H37.5V75.3061H29.1667V83.6735H62.5V75.3061H54.1667V66.9388H62.5V58.5714H8.33333V8.36735H83.3333V29.2857H91.6667V8.36735C91.6667 6.14819 90.7887 4.01992 89.2259 2.45074C87.6631 0.881557 85.5435 0 83.3333 0ZM49.875 29.2857L45.8333 16.7347L41.7917 29.2857H29.1667L39.4583 36.649L35.5417 48.8235L45.8333 41.2929L56.125 48.8235L52.2083 36.649L62.5 29.2857H49.875Z" fill="#FFBB01"/>
</svg>
