<svg width="45" height="50" viewBox="0 0 45 50" fill="none" xmlns="http://www.w3.org/2000/svg">
<path d="M32.5 30H12.5C11.837 30 11.2011 30.2634 10.7322 30.7322C10.2634 31.2011 10 31.837 10 32.5C10 33.163 10.2634 33.7989 10.7322 34.2678C11.2011 34.7366 11.837 35 12.5 35H32.5C33.163 35 33.7989 34.7366 34.2678 34.2678C34.7366 33.7989 35 33.163 35 32.5C35 31.837 34.7366 31.2011 34.2678 30.7322C33.7989 30.2634 33.163 30 32.5 30ZM32.5 20H17.5C16.837 20 16.2011 20.2634 15.7322 20.7322C15.2634 21.2011 15 21.837 15 22.5C15 23.163 15.2634 23.7989 15.7322 24.2678C16.2011 24.7366 16.837 25 17.5 25H32.5C33.163 25 33.7989 24.7366 34.2678 24.2678C34.7366 23.7989 35 23.163 35 22.5C35 21.837 34.7366 21.2011 34.2678 20.7322C33.7989 20.2634 33.163 20 32.5 20ZM42.5 5H35V2.5C35 1.83696 34.7366 1.20107 34.2678 0.732233C33.7989 0.263392 33.163 0 32.5 0C31.837 0 31.2011 0.263392 30.7322 0.732233C30.2634 1.20107 30 1.83696 30 2.5V5H25V2.5C25 1.83696 24.7366 1.20107 24.2678 0.732233C23.7989 0.263392 23.163 0 22.5 0C21.837 0 21.2011 0.263392 20.7322 0.732233C20.2634 1.20107 20 1.83696 20 2.5V5H15V2.5C15 1.83696 14.7366 1.20107 14.2678 0.732233C13.7989 0.263392 13.163 0 12.5 0C11.837 0 11.2011 0.263392 10.7322 0.732233C10.2634 1.20107 10 1.83696 10 2.5V5H2.5C1.83696 5 1.20107 5.26339 0.732233 5.73223C0.263392 6.20107 0 6.83696 0 7.5V42.5C0 44.4891 0.790177 46.3968 2.1967 47.8033C3.60322 49.2098 5.51088 50 7.5 50H37.5C39.4891 50 41.3968 49.2098 42.8033 47.8033C44.2098 46.3968 45 44.4891 45 42.5V7.5C45 6.83696 44.7366 6.20107 44.2678 5.73223C43.7989 5.26339 43.163 5 42.5 5V5ZM40 42.5C40 43.163 39.7366 43.7989 39.2678 44.2678C38.7989 44.7366 38.163 45 37.5 45H7.5C6.83696 45 6.20107 44.7366 5.73223 44.2678C5.26339 43.7989 5 43.163 5 42.5V10H10V12.5C10 13.163 10.2634 13.7989 10.7322 14.2678C11.2011 14.7366 11.837 15 12.5 15C13.163 15 13.7989 14.7366 14.2678 14.2678C14.7366 13.7989 15 13.163 15 12.5V10H20V12.5C20 13.163 20.2634 13.7989 20.7322 14.2678C21.2011 14.7366 21.837 15 22.5 15C23.163 15 23.7989 14.7366 24.2678 14.2678C24.7366 13.7989 25 13.163 25 12.5V10H30V12.5C30 13.163 30.2634 13.7989 30.7322 14.2678C31.2011 14.7366 31.837 15 32.5 15C33.163 15 33.7989 14.7366 34.2678 14.2678C34.7366 13.7989 35 13.163 35 12.5V10H40V42.5Z" fill="#FFBB01"/>
</svg>
