<svg width="50" height="50" viewBox="0 0 50 50" fill="none" xmlns="http://www.w3.org/2000/svg">
<path d="M23.3893 32.4214C25.0322 33.0714 26.5322 33.9357 27.8822 35.0107C29.2322 36.0821 30.3858 37.3321 31.3465 38.7464C33.3059 41.6002 34.3612 44.9776 34.3751 48.4393V50H31.2501V48.4357C31.2567 46.5886 30.8954 44.7587 30.1872 43.0528C29.4789 41.3469 28.438 39.7992 27.1251 38.5C25.8363 37.2296 24.3209 36.212 22.6572 35.5C20.9281 34.7592 19.0669 34.3765 17.1858 34.375C15.3387 34.3683 13.5088 34.7296 11.8029 35.4379C10.097 36.1461 8.54927 37.1871 7.25006 38.5C5.98003 39.789 4.96251 41.3044 4.25006 42.9679C3.51434 44.6607 3.14292 46.4857 3.12506 48.4357V50H5.8698e-05V48.4357C-0.0090767 44.9716 1.04833 41.5887 3.02863 38.7464C5.00111 35.9007 7.7707 33.7014 10.9893 32.425C10.2581 31.9226 9.59232 31.3311 9.0072 30.6643C8.42903 30.0078 7.92923 29.2863 7.51792 28.5143C7.10821 27.7429 6.79628 26.9235 6.58934 26.075C6.37832 25.2106 6.26451 24.3254 6.25006 23.4357C6.25006 21.925 6.53577 20.5071 7.1072 19.1893C8.22455 16.5783 10.304 14.4975 12.9143 13.3786C14.261 12.8053 15.7089 12.5077 17.1725 12.5034C18.6361 12.4991 20.0858 12.7882 21.4358 13.3536C24.0474 14.4718 26.1283 16.5526 27.2465 19.1643C28.1713 21.3389 28.368 23.7544 27.8072 26.05C27.5929 26.8964 27.2786 27.7107 26.8572 28.4929C26.4385 29.267 25.9393 29.9948 25.3679 30.6643C24.7965 31.3321 24.1358 31.9143 23.3893 32.4214V32.4214ZM17.1858 31.25C18.2608 31.25 19.2715 31.0464 20.2143 30.6429C22.0837 29.8485 23.5716 28.3594 24.3643 26.4893C24.7893 25.5286 25.0001 24.5107 25.0001 23.4393C25.0046 22.4166 24.8037 21.4034 24.4092 20.4598C24.0148 19.5163 23.4347 18.6615 22.7036 17.9464C21.9805 17.2413 21.1376 16.6705 20.2143 16.2607C19.2617 15.8352 18.2291 15.6185 17.1858 15.625C16.1143 15.625 15.1036 15.8286 14.1608 16.2321C12.2811 17.0339 10.7839 18.531 9.9822 20.4107C9.57863 21.3536 9.37506 22.3643 9.37506 23.4393C9.37506 24.5107 9.57863 25.5214 9.9822 26.4643C10.3929 27.4071 10.9465 28.2393 11.6465 28.9536C12.3712 29.6859 13.2347 30.2662 14.1864 30.6605C15.1382 31.0548 16.1591 31.2552 17.1893 31.25H17.1858ZM50.0001 0V25H43.7501L34.3751 34.375V25H31.2501V21.875H37.5001V26.8321L42.4572 21.875H46.8751V3.125H15.6251V8.73929C15.1012 8.80547 14.5796 8.88765 14.0608 8.98571C13.5288 9.08671 13.0066 9.23369 12.5001 9.425V0H50.0001Z" fill="#FFBB01"/>
</svg>
