<svg width="50" height="50" viewBox="0 0 50 50" fill="none" xmlns="http://www.w3.org/2000/svg">
<path d="M18.9655 0C18.069 0 17.1379 0.310345 16.4828 0.965517C15.8276 1.62069 15.5172 2.55172 15.5172 3.44828V5.17241H0V39.6552H19.3103C19.0862 38.5517 18.9655 37.3966 18.9655 36.2069H3.44828V24.8966C4.46552 25.4828 5.63793 25.8621 6.89655 25.8621H22.431C23.3966 24.5517 24.569 23.3793 25.8793 22.4138H6.89655C4.84483 22.4138 3.44828 21.0172 3.44828 18.9655V8.62069H41.3793V18.9655C41.3793 19.2414 41.3621 19.5 41.3103 19.7414C42.5517 20.1207 43.7241 20.6379 44.8276 21.2759V5.17241H29.3103V3.44828C29.3103 2.55172 29 1.62069 28.3448 0.965517C27.6897 0.310345 26.7586 0 25.8621 0H18.9655ZM18.9655 3.44828H25.8621V5.17241H18.9655V3.44828ZM10.3448 15.5172V20.6897H13.7931V15.5172H10.3448ZM31.0345 15.5172V19.7586C32.1572 19.4077 33.3125 19.1709 34.4828 19.0517V15.5172H31.0345ZM36.2069 22.4138C28.6034 22.4138 22.4138 28.6034 22.4138 36.2069C22.4138 43.8103 28.6034 50 36.2069 50C43.8103 50 50 43.8103 50 36.2069C50 28.6034 43.8103 22.4138 36.2069 22.4138ZM36.2069 25.8621C41.931 25.8621 46.5517 30.4828 46.5517 36.2069C46.5517 41.931 41.931 46.5517 36.2069 46.5517C30.4828 46.5517 25.8621 41.931 25.8621 36.2069C25.8621 30.4828 30.4828 25.8621 36.2069 25.8621ZM34.4828 27.5862V37.931H43.1034V34.4828H37.931V27.5862H34.4828Z" fill="#FFBB01"/>
</svg>
